PathFileType	4	(X/Y/Z)	S01_Demo_SingleTrial_0-100.trc
DataRate	CameraRate	NumFrames	NumMarkers	Units	OrigDataRate	OrigDataStartFrame	OrigNumFrames
60	60	7	21	m	60	12	100
Frame#	Time	RHip			RKnee			RAnkle			RBigToe			RSmallToe			RHeel			LHip			LKnee			LAnkle			LBigToe			LSmallToe			LHeel			Neck			Head			Nose			RShoulder			RElbow			RWrist			LShoulder			LElbow			LWrist		
		X1	Y1	Z1	X2	Y2	Z2	X3	Y3	Z3	X4	Y4	Z4	X5	Y5	Z5	X6	Y6	Z6	X7	Y7	Z7	X8	Y8	Z8	X9	Y9	Z9	X10	Y10	Z10	X11	Y11	Z11	X12	Y12	Z12	X13	Y13	Z13	X14	Y14	Z14	X15	Y15	Z15	X16	Y16	Z16	X17	Y17	Z17	X18	Y18	Z18	X19	Y19	Z19	X20	Y20	Z20	X21	Y21	Z21
13	0.2166666666666666	-0.10709763387256106	0.9221051065338063	-1.292803762985042	-0.0664859924341358	0.4910545863210858	-1.367948721552147	0.016868403999686025	0.17620963717515067	-1.5841390747098545	-0.02597112862918302	0.07417448249101403	-1.4332943865995726	-0.030315379710151094	0.0835560130567927	-1.4939751508117638	0.04228287565521517	0.15977193309761895	-1.6386482061332364	0.05216319811834453	0.9012406166969484	-1.3344905840646102	0.021557414030920045	0.505889237243386	-1.1414065658057486	-0.0031123693425798927	0.15631464392984823	-1.1738844013571603	-0.025586275568405595	0.08162023950062966	-1.0016241845466065	-0.0024946084960000624	0.09032741660521641	-1.0182598254119228	0.0059730143257174005	0.1238923218680936	-1.1927351088713414	0.07070182457037996	1.4648075809135799	-1.277165008025496	0.11209087740660037	1.7012145518454451	-1.1092494559836048	0.09333007470426699	1.5516742802549226	-1.0859583551764596	-0.08701379479801552	1.4351847605121333	-1.2939409566381241	-0.29706473626004803	1.2674070417153518	-1.377192837516783	-0.4231606989369832	1.1761216016965799	-1.2106679794083688	0.2037061958917083	1.3794569886758608	-1.3447345169772245	0.3064623237182137	1.1063280795079722	-1.3514611637275442	0.3713642911276692	0.8586617869896523	-1.2888770731514996
14	0.2333333333333333	-0.1113136796518214	0.9240685826387337	-1.282878926823047	-0.07997630671473246	0.49067859280772325	-1.3433666856996278	0.006374982619211274	0.1832618861272236	-1.575366920286176	-0.028580818824666957	0.07570222613615646	-1.430497291950459	-0.0326510579225241	0.08498235187547074	-1.4902866841631632	0.0350740587430823	0.1687492831556288	-1.6326325235895336	0.04680938687076227	0.8998006554433216	-1.3223380963197187	0.014686577293355403	0.5065059039315186	-1.1317152449372292	-0.0032595599443418074	0.15690348040337115	-1.170947026973082	-0.02050930300723837	0.085258851199569	-1.0007998052712477	0.0009856441889563845	0.09245061460383772	-1.0149881838703574	0.00630418932144991	0.12134045631408104	-1.2008793040914028	0.08188083593425359	1.463251608701518	-1.2653900996289376	0.12683366523986983	1.6979272338570186	-1.1040898743747858	0.10765246917418932	1.547274453618448	-1.0804066534664487	-0.07796406191287047	1.4365312990374863	-1.2839141253923887	-0.29192626713387476	1.2906180171180612	-1.3480115129984171	-0.42393021835922473	1.2098447084680921	-1.1833527187311055	0.21255578625358687	1.372238162149448	-1.329478110134319	0.3097937344114504	1.099035555312172	-1.34014220233215	0.37200772190624226	0.8491365946025888	-1.274549129480343
15	0.25	-0.1156320837793448	0.9260377913250774	-1.2739922801746928	-0.09665134538354239	0.4924922164608555	-1.316255894962007	-0.007375625887401261	0.19217266791745516	-1.562008492224765	-0.03335821133814549	0.07771175041264239	-1.4260514792774015	-0.03733152247721215	0.087245382083041	-1.483818045387106	0.0253352291529319	0.17870786291472435	-1.6240938367205258	0.04156447294346353	0.8985168885663438	-1.3120434947887147	0.0072461158407783905	0.5077245500394408	-1.1180291054766083	-0.0034577048849349294	0.15716871947603217	-1.166702143504796	-0.01647156956319961	0.08739673504833852	-1.0007177880155511	0.003492479303077537	0.09209357643859417	-1.0149580129855946	0.006565517130917798	0.11790780960846244	-1.2081432897687836	0.09275410909875383	1.4606798984965297	-1.2529526448833475	0.14227435909045905	1.6944856027169417	-1.0960309088645193	0.1203372463932682	1.5422656966563721	-1.0734777635835289	-0.06791655248792794	1.437614655410218	-1.273601670489934	-0.2842713958449304	1.3117094564351184	-1.3238544944767474	-0.42607893196133484	1.2431579023970103	-1.162483744445405	0.22283376345863384	1.364303776185281	-1.3125693162346257	0.3137645916011092	1.0907545948962951	-1.3274655744199297	0.37240410237175764	0.8392471718639091	-1.258056820122754
16	0.2666666666666666	-0.12014769231299277	0.9281037063095964	-1.2658214469079099	-0.11684052479324844	0.49685575395057485	-1.288263453400014	-0.024125530827123168	0.2033687591269111	-1.5429297356496918	-0.04136438398945043	0.08034872106590585	-1.419073505315332	-0.04538528070399968	0.09055666125196822	-1.474137815458933	0.013444508759458747	0.18903355829780163	-1.6113321974304349	0.03654467722038052	0.8971808383571361	-1.3032920832518793	-0.0023696567984221786	0.5097993737399266	-1.1006540656778032	-0.003836072500493889	0.15697930128181728	-1.161614761586506	-0.013535211733995507	0.08823081867888662	-1.0011977012989322	0.006131202944274095	0.0899770966342619	-1.0179564715687182	0.006709632951929342	0.11391271717890597	-1.2143607510008525	0.10282365656147854	1.457017111433025	-1.2412537044348935	0.15884803722816296	1.6908018566435312	-1.0833245951595025	0.13143703019094052	1.5368864759991296	-1.06433799190989	-0.057060336797627585	1.438620634417214	-1.2634149309975684	-0.2724188237948591	1.3289599412801147	-1.3091402739339537	-0.4286063382109232	1.2755259352678765	-1.1490500744943124	0.23414148541460988	1.355599754805659	-1.2942582507361897	0.31851354087299405	1.081472227049984	-1.3130468127939388	0.37279700774137337	0.828878654026671	-1.2382373131375917
17	0.2833333333333333	-0.12477791431997157	0.9303119984414967	-1.2580549307986022	-0.14112210441912887	0.5038040751009023	-1.2610783648719617	-0.04343440018775242	0.21648235271267507	-1.518007427682452	-0.05365492367171327	0.083832072020646	-1.4085051194741243	-0.05770105728084174	0.09481640183204625	-1.4612788017591012	-0.000108182092704691	0.19897080719952762	-1.5931945877251406	0.031857469603241845	0.8954759530521288	-1.2956386214382434	-0.014690139163574482	0.5125848639514247	-1.081710060016587	-0.0045344649702092794	0.15604323928754643	-1.1571259859578897	-0.011494898987976945	0.08850355945810416	-1.0018382460254	0.010004405756202862	0.08747119394139084	-1.0228593335467058	0.006827313488831772	0.10983116949610947	-1.220289550709727	0.11211194779152955	1.4523511351037839	-1.2306916765680385	0.17575232810814517	1.6866983341449766	-1.067573853609888	0.14102958078473726	1.5312429505096752	-1.053483781827864	-0.045880975203466186	1.4395795268040805	-1.2536460670805034	-0.2550699622601778	1.3415359565001665	-1.3071414775345083	-0.4291127179638638	1.3066098363819505	-1.1388774396044135	0.24499866348748958	1.3464455655696084	-1.2767663757311192	0.32330098164233484	1.0715463548513504	-1.2978707102592868	0.3727638690279613	0.8184455038130385	-1.2172364235898792
18	0.3	-0.12941359692877105	0.9327809773620461	-1.2504109038746951	-0.169616020167414	0.5131943638709536	-1.2357044289450574	-0.0643866775997791	0.22958248942672022	-1.4894884949424807	-0.07097006215193268	0.08803522070429856	-1.3934855853543033	-0.07502303076418387	0.09958525414740052	-1.4456007438072416	-0.015173193256668362	0.20764951089946976	-1.5698555700565542	0.027556284075404284	0.8933015099107947	-1.288630603453305	-0.028636193908495835	0.5150661881307315	-1.065104529961779	-0.005593141849156412	0.15415479421870926	-1.1546254697962586	-0.010039750898067152	0.0888515770614633	-1.0022286485706948	0.0150797928587037	0.08566470776208795	-1.0282680567779159	0.006919276810193488	0.10651229229552121	-1.2257458885495935	0.12102978177317046	1.4469692748260492	-1.220861579008189	0.19162744988794894	1.681866281313079	-1.0519273368348456	0.14938273013377734	1.5253546298300207	-1.042080518821257	-0.0349942975172246	1.440411553043253	-1.244262780932718	-0.23248715520952054	1.349387945764309	-1.3182635754561058	-0.42442515658242197	1.3362838446857286	-1.124926214854038	0.2542546789626491	1.337267471075131	-1.2618140554038073	0.32708463055728465	1.061623280221925	-1.2833084103287378	0.37134945788556223	0.8087102241830522	-1.1996947720114295
19	0.3166666666666666	-0.1339894600204713	0.9356607081720293	-1.242659809258674	-0.20120907823700857	0.5246615066198803	-1.2120494576615999	-0.0857267556930393	0.2394274885518379	-1.4619787428668185	-0.09341646110180435	0.0921289343817041	-1.3736856612968866	-0.09783369236974933	0.10424554279745114	-1.4271908306512051	-0.03241456589505514	0.2141780454126869	-1.5428139514891055	0.023724548376218475	0.8908915608878276	-1.2818474796810575	-0.04184458715035876	0.5154630376819674	-1.0553069955907726	-0.00698060316341984	0.15124801642842087	-1.1545410236278435	-0.008881257319440701	0.08937868971733759	-1.0020219826847736	0.020394203144689	0.08486500147489374	-1.0330394965671854	0.006693705233048126	0.10440925772843647	-1.229661570482718	0.1299396559442825	1.441264307080431	-1.21113759876231	0.2055228003336609	1.6758896391814175	-1.0383930155908327	0.15703188714037064	1.5191665984751979	-1.0310350776730972	-0.024897471374324156	1.4409674856845944	-1.2350944380363869	-0.20796383918993602	1.3533793460029093	-1.3371828034153956	-0.4130346411758209	1.3642667379530438	-1.104248139164089	0.26196371490522036	1.3283098166658995	-1.248868734760556	0.3293056168663661	1.0522746453252125	-1.2696963043148388	0.36806618010384773	0.800191051146648	-1.1886588526854136
